<?xml version="1.0" encoding="iso-8859-1"?>
<!-- Generator: Adobe Illustrator 19.0.0, SVG Export Plug-In . SVG Version: 6.00 Build 0)  -->
<svg version="1.1" id="Capa_1" xmlns="http://www.w3.org/2000/svg" xmlns:xlink="http://www.w3.org/1999/xlink" x="0px" y="0px"
	 viewBox="0 0 512 512" style="enable-background:new 0 0 512 512;" xml:space="preserve">
<path style="fill:#FEC007;" d="M482.112,329.776l3.098,68.027c0.282,6.188-6.109,10.464-11.721,7.842l-61.705-28.826
	c-49.593,14.182-104.09-0.502-139.726-39.352c-1.556-1.69-3.062-3.42-4.526-5.202c-0.993-1.178-1.946-2.376-2.888-3.594
	c-1.987-2.56-3.901-5.202-5.734-7.936c-33.956-50.78-29.829-115.897,5.714-161.629c0.942-1.208,1.905-2.406,2.898-3.584
	c1.823-2.202,3.738-4.362,5.724-6.461c6.984-7.393,14.899-14.121,23.716-20.019c63.447-42.435,149.28-25.406,191.704,38.031
	C522.888,218.262,518.423,283.993,482.112,329.776z"/>
<path style="fill:#FE9700;" d="M268.402,330.984c-0.287,0.43-0.573,0.86-0.87,1.28c-0.993-1.178-1.946-2.376-2.888-3.594
	c-1.987-2.56-3.901-5.202-5.734-7.936c-33.956-50.78-29.829-115.897,5.714-161.629c0.942-1.208,1.905-2.406,2.898-3.584
	C302.471,206.793,304.959,276.323,268.402,330.984z"/>
<path style="fill:#FB4239;" d="M253.084,320.739c42.58-63.664,25.28-149.871-38.71-192.146
	C150.716,86.535,65.751,103.659,23.335,167.08c-34.227,51.176-29.754,116.913,6.552,162.694l-3.092,68.036
	c-0.281,6.189,6.11,10.464,11.723,7.84l61.699-28.838C156.392,392.883,218.856,371.915,253.084,320.739z"/>
<path style="fill:#FEC007;" d="M205.6,304.07l-20.022-20.022c8.813-11.165,14.093-25.241,14.093-40.536
	c0-36.147-29.408-65.556-65.556-65.556s-65.556,29.409-65.556,65.556s29.409,65.556,65.556,65.556
	c15.295,0,29.371-5.279,40.536-14.092L194.674,315c1.509,1.508,3.486,2.263,5.463,2.263c1.977,0,3.955-0.755,5.463-2.263
	C208.618,311.979,208.618,307.088,205.6,304.07z M134.115,293.614c-27.627,0-50.103-22.476-50.103-50.103
	s22.476-50.103,50.103-50.103s50.103,22.476,50.103,50.103c0,11.031-3.591,21.235-9.655,29.521l-34.984-34.985
	c-3.017-3.016-7.909-3.016-10.927,0c-3.018,3.018-3.018,7.91,0,10.928l34.984,34.984
	C155.35,290.023,145.146,293.614,134.115,293.614z"/>
<path style="fill:#FB4239;" d="M428.477,296.281l-19.148-46.005c-0.01-0.024-0.02-0.048-0.03-0.072l-28.961-69.581
	c-1.199-2.881-4.013-4.758-7.133-4.758s-5.934,1.876-7.133,4.758l-28.958,69.573c-0.013,0.03-0.025,0.06-0.037,0.09l-19.144,45.995
	c-1.639,3.94,0.225,8.462,4.164,10.102c3.939,1.64,8.462-0.224,10.102-4.164l17.169-41.25h47.674l17.169,41.25
	c1.236,2.969,4.109,4.76,7.136,4.76c0.989,0,1.995-0.191,2.966-0.596C428.252,304.743,430.117,300.221,428.477,296.281z
	 M355.799,245.516l17.405-41.818l17.405,41.818H355.799z"/>
<g>
</g>
<g>
</g>
<g>
</g>
<g>
</g>
<g>
</g>
<g>
</g>
<g>
</g>
<g>
</g>
<g>
</g>
<g>
</g>
<g>
</g>
<g>
</g>
<g>
</g>
<g>
</g>
<g>
</g>
</svg>
